<?xml version="1.0" encoding="UTF-8"?>
<svg id="Layer_2" data-name="Layer 2" xmlns="http://www.w3.org/2000/svg" viewBox="0 0 1676.06 307.55">
  <defs>
    <style>
      .cls-1 {
        fill: #7d7dfb;
      }

      .cls-2 {
        fill: #fff;
      }
    </style>
  </defs>
  <g id="Layer_1-2" data-name="Layer 1">
    <g>
      <g>
        <path class="cls-1" d="M41.27,229.26c7.93-9.58,19.62-15.96,22.09-29.49,3.71-20.37-10.19-33.4-.29-57.48,1.76-4.29,4.56-6.97,6.34-11-6.12-2.15-10.95-2.53-16.89.45-16.95,8.5-9.83,35.19-13.38,50.39-4.42,18.95-20.8,26.63-39.14,23.22l7.51-5.41c18.84-20.74-13.12-55.56,11.7-77.12,12.7-11.03,33.96-12.28,48.53-4.4,3.97,2.15,6.45,5.53,10.58,7.19,13.16-7.28,24.99-5.44,38.17.34,7.07,3.1,28.26,17.25,34.57,15.27,7.72-2.43-.17-12.2-1.93-16.95-6.23-16.74-4.92-35.99,2.99-51.91,6.26-.29,14.18.49,18.61-4.83-16.51-1.07-28.92-9.18-21.56-27.2,3.28,3.51,6.17,7.25,10.44,9.71,21.04,12.13,40.06-4.86,61.78.59-12.96-14.36-39.91-4.31-53.49-15.44-10.06-8.24-11.83-26.42-1.86-35.18.54,5.31,5.84,10.74,9.88,14.04,23.49,19.2,68.72,13.05,74.57,52.54l52.52-10.31-50.2,27.17c-1.88,3.05.43,34.55-.54,41.66-1.34,9.84-12.21,14.71-20.09,8.99-7.27-5.27-4.46-14.95-9.97-20.97-2.09-2.28-5.37-3.25-7.82-5.31-10.03-8.48-13.8-19.85-10.81-32.79-10.32,3.04-19.22,15.9-18.79,26.67.29,7.25,9.68,21.95,13.71,28.57,12.32,20.2,37.26,41.76,18.19,66.16-4.91,6.29-19.56,16.83-20.58,24.48-1.07,8.07,12.83,35.25,17.14,43.7l25.04,42.95h-30.49c-3.95-9.18-6.53-18.86-10.35-28.1-13.43-32.54-35.5-66.65-67.02-83.97-6.86-3.77-13.76-9.51-19.21-1.34-4.26,6.38-6.4,14.95-11.94,22.76-9.41,13.27-35.46,34.39-39.27,47.95-3.77,13.43,4.88,32.48,13.18,42.71h-31.89v-78.29Z"/>
        <path class="cls-1" d="M172.6,307.55h-32.83c-3.04-14.42-10.49-29.23-20.16-40.33-5.15-5.92-13.29-10.04-14.47-18.36-2.14-15.07,13.41-25.75,17.3-39.79,9.26,4.54,17.74,10.85,24.81,18.31-5.74,6.56-17.63,16.15-14.57,25.84,13.99,17.59,29.29,34.35,39.92,54.33Z"/>
        <path class="cls-1" d="M230.77,261.6l-10.33-24.36c8.21-2.67,16.82-8.24,21.42-15.64,1.16-1.87,3.57-5.89,2.55-7.81l-19.28-7.04c5.96-4.56,11.16-13.62,12.91-20.84.48-1.98-.78-7.49,1.59-6.78,6.86,2.05,22.63,12.7,25.88,19.14,2.84,5.64-.25,12.77-2.4,18.32-6.52,16.82-19.36,32.73-32.34,45.02Z"/>
      </g>
      <g>
        <path class="cls-2" d="M519.43,59.06v43.9h-109.44v38.49h92v43.9h-92v40.29h110.95v43.9h-158.75V59.06h157.25Z"/>
        <path class="cls-2" d="M541.67,269.53V113.18h45.1v14.13c10.52-12.03,24.05-18.04,40.59-18.04,20.45,0,36.38,8.12,47.51,24.05,10.22-15.93,25.86-24.05,46.9-24.05,17.14,0,31.27,5.71,43,16.84,11.73,11.13,17.44,24.66,17.44,41.19v102.23h-45.1v-90.2c0-15.93-11.43-28.26-26.16-28.26s-26.46,12.33-26.46,28.26v90.2h-45.1v-90.2c0-15.93-11.43-28.26-26.16-28.26s-26.46,12.33-26.46,28.26v90.2h-45.1Z"/>
        <path class="cls-2" d="M802.64,191.36c0-23.15,7.82-42.7,23.75-58.33,15.94-15.93,36.08-23.75,59.83-23.75s43.6,7.82,59.53,23.75c15.93,15.63,24.05,35.18,24.05,58.33s-8.12,42.69-24.05,58.63c-15.94,15.63-35.78,23.45-59.53,23.45s-43.9-7.82-59.83-23.45c-15.94-15.94-23.75-35.48-23.75-58.63ZM912.08,218.12c7.22-7.52,10.82-16.24,10.82-26.76s-3.61-19.24-10.82-26.46c-6.92-7.52-15.63-11.12-25.86-11.12s-19.24,3.61-26.16,10.82c-6.92,7.22-10.52,16.24-10.52,26.76s3.61,19.54,10.52,26.76c6.92,7.22,15.63,10.82,26.16,10.82s18.94-3.61,25.86-10.82Z"/>
        <path class="cls-2" d="M979.73,113.18h21.35v-30.37h45.1v30.37h35.48v39.09h-35.48v58.63c0,9.62,7.22,16.54,17.14,16.54h18.34v42.09h-25.86c-15.33,0-28.56-4.81-39.09-14.13-10.52-9.62-15.63-21.65-15.63-35.78v-67.35h-21.35v-39.09Z"/>
        <path class="cls-2" d="M1095.18,74.4c0-8.12,2.71-14.73,7.82-19.84,5.41-5.11,12.03-7.82,20.14-7.82s14.73,2.71,19.84,7.82c5.41,5.11,8.12,11.73,8.12,19.84s-2.71,14.73-8.12,19.84c-5.11,5.11-11.73,7.82-19.84,7.82s-14.73-2.71-20.14-7.82c-5.11-5.11-7.82-11.73-7.82-19.84ZM1100.59,269.53V113.18h45.1v156.35h-45.1Z"/>
        <path class="cls-2" d="M1283.4,176.33c-5.71-13.53-18.34-22.55-33.67-22.55-10.52,0-19.24,3.61-26.16,10.82-6.92,6.92-10.52,15.93-10.52,26.46,0,21.65,15.93,37.88,36.68,37.88,15.33,0,27.96-9.02,33.67-22.55l45.4,13.23c-12.03,32.47-42.09,53.82-79.08,53.82-23.75,0-43.9-7.82-59.83-23.45-15.94-15.94-23.75-35.48-23.75-58.63s7.82-43,23.75-58.63c15.93-15.63,36.08-23.45,59.83-23.45,36.98,0,67.05,21.35,79.08,53.82l-45.4,13.23Z"/>
        <path class="cls-2" d="M1341.12,191.36c0-23.15,7.82-42.7,23.75-58.33,15.93-15.93,36.08-23.75,59.83-23.75s43.6,7.82,59.53,23.75c15.93,15.63,24.05,35.18,24.05,58.33s-8.12,42.69-24.05,58.63c-15.94,15.63-35.78,23.45-59.53,23.45s-43.9-7.82-59.83-23.45c-15.94-15.94-23.75-35.48-23.75-58.63ZM1450.56,218.12c7.22-7.52,10.82-16.24,10.82-26.76s-3.61-19.24-10.82-26.46c-6.92-7.52-15.63-11.12-25.86-11.12s-19.24,3.61-26.16,10.82c-6.92,7.22-10.52,16.24-10.52,26.76s3.61,19.54,10.52,26.76c6.92,7.22,15.63,10.82,26.16,10.82s18.94-3.61,25.86-10.82Z"/>
        <path class="cls-2" d="M1528.43,113.18h45.1v15.94c10.52-13.23,24.66-19.84,42.69-19.84,16.84,0,30.97,5.71,42.39,17.14,11.73,11.43,17.44,25.56,17.44,42.7v100.42h-45.1v-88.4c0-17.14-12.03-30.07-28.56-30.07s-28.86,12.93-28.86,30.07v88.4h-45.1V113.18Z"/>
      </g>
    </g>
  </g>
</svg>