<?xml version="1.0" encoding="UTF-8"?>
<svg id="Layer_2" data-name="Layer 2" xmlns="http://www.w3.org/2000/svg" viewBox="0 0 441.74 476.88">
  <defs>
    <style>
      .cls-1 {
        fill: #19ffb2;
      }
    </style>
  </defs>
  <g id="Layer_1-2" data-name="Layer 1">
    <path class="cls-1" d="M109.42,54.56C201-34.41,355.45-11.5,415.95,100.95c48.02,89.25,24.5,258.44-33.69,340.18-12.28,17.25-39.07,51.47-61.86,27.52-15.74-16.54-7.43-68.41-37.59-70.41-16.37-1.08-33.61,30.6-44.41,42.18-13.25,14.22-37.42,38.88-58.16,34.63-35.28-7.24-3.74-58.05-30.08-73.16-21-12.05-28.39,8.86-40.81,19.78-19.04,16.74-53.43,43.39-76.58,52.46-24.34,9.54-35.43-10.25-32.24-32.17,4.68-32.18,18.03-68.58,24.72-102.03,18.96-94.78,12.24-215.5,84.16-285.37ZM203.5,112.65c-40.8,2.28-53.05,72.01-50.48,103.36,8.22,100.35,92.69,71.5,100.59-9.1,2.98-30.46-8.62-96.58-50.11-94.26ZM330.43,114.8c-46.85,9.72-57.66,138.65-12.73,161.82,39.78,20.51,69.1-40.12,72-72.07,3.26-35.79-11.18-99.73-59.27-89.75Z"/>
  </g>
</svg>