<?xml version="1.0" encoding="UTF-8"?>
<svg id="Layer_2" data-name="Layer 2" xmlns="http://www.w3.org/2000/svg" viewBox="0 0 1481.9 812.52">
  <defs>
    <style>
      .cls-1 {
        fill: #fff;
      }
    </style>
  </defs>
  <g id="Layer_1-2" data-name="Layer 1">
    <g>
      <g>
        <path class="cls-1" d="M0,6.9h96.6l84.39,140.12L268.04,6.9h96.07l-141.18,217.08v154.45h-83.86v-152.86L0,6.9Z"/>
        <path class="cls-1" d="M355.62,192.67c0-54.67,18.58-100.85,55.73-137.47C448.5,18.58,494.68,0,550.41,0s101.91,18.58,139.06,55.2c37.68,36.62,56.26,82.8,56.26,137.47s-18.58,100.85-56.26,137.47c-37.15,36.62-83.33,55.2-139.06,55.2s-101.91-18.58-139.06-55.2c-37.15-36.62-55.73-82.8-55.73-137.47ZM627.37,272.81c20.7-21.76,30.78-48.3,30.78-80.15s-10.08-58.38-30.78-79.61c-20.7-21.76-46.18-32.38-76.96-32.38s-55.73,10.61-76.43,32.38c-20.7,21.23-30.78,47.77-30.78,79.61s10.08,58.38,30.78,80.15c20.7,21.23,46.18,31.85,76.43,31.85s56.26-10.61,76.96-31.85Z"/>
        <path class="cls-1" d="M1029.68,6.9h83.86v221.33c0,44.58-15.92,81.74-47.24,111.99-31.31,30.25-70.59,45.12-117.3,45.12s-85.98-14.86-117.3-45.12c-31.31-30.25-47.24-67.41-47.24-111.99V6.9h83.86v220.8c0,22.82,7.43,41.93,22.82,57.32,15.39,15.39,35.03,22.82,57.85,22.82s41.93-7.43,57.32-22.82c15.39-15.39,23.35-34.5,23.35-57.32V6.9Z"/>
        <path class="cls-1" d="M1334.34,6.9c38.22,0,70.06,12.21,95.54,36.09,26.01,23.88,38.75,53.08,38.75,88.64,0,47.24-26.01,87.58-66.88,108.81l80.15,138h-93.41l-71.65-122.08h-72.18v122.08h-84.39V6.9h174.09ZM1244.64,84.39v94.48h89.7c27.07,0,46.71-20.17,46.71-47.24s-19.64-47.24-46.71-47.24h-89.7Z"/>
      </g>
      <g>
        <path class="cls-1" d="M82.5,442.56v287.46h175.38v75.76H0v-363.21h82.5Z"/>
        <path class="cls-1" d="M272.41,624.16c0-53.45,18.16-98.59,54.48-134.39,36.32-35.8,81.46-53.96,135.94-53.96s99.62,18.16,135.95,53.96c36.84,35.8,55,80.94,55,134.39s-18.16,98.59-55,134.39c-36.32,35.8-81.46,53.96-135.95,53.96s-99.62-18.16-135.94-53.96c-36.32-35.8-54.48-80.95-54.48-134.39ZM538.07,702.51c20.24-21.27,30.09-47.22,30.09-78.35s-9.86-57.08-30.09-77.83c-20.24-21.27-45.14-31.65-75.24-31.65s-54.48,10.38-74.72,31.65c-20.24,20.76-30.09,46.7-30.09,77.83s9.86,57.08,30.09,78.35c20.24,20.76,45.14,31.13,74.72,31.13s55-10.38,75.24-31.13Z"/>
        <path class="cls-1" d="M743.02,489.78c36.84-35.8,83.02-53.96,138.02-53.96,37.88,0,72.64,9.34,103.78,28.02,31.13,18.68,54.48,44.1,70.05,76.27l-79.91,29.58c-18.16-34.76-52.93-55-93.92-55-31.13,0-57.08,10.38-77.31,31.65-20.24,20.76-30.61,46.7-30.61,77.83s9.86,56.56,29.58,77.83c19.72,21.28,44.1,31.65,73.68,31.65,41.51,0,79.91-24.91,94.95-62.27h-103.78v-70.05h197.17c1.04,6.23,1.56,12.97,1.56,19.72,0,54.48-18.16,99.62-53.96,136.46-35.8,36.84-80.94,55-135.43,55s-98.07-18.16-134.91-53.96c-36.32-35.8-54.48-80.95-54.48-134.39s18.68-98.59,55.52-134.39Z"/>
        <path class="cls-1" d="M1100.52,624.16c0-53.45,18.16-98.59,54.48-134.39s81.46-53.96,135.95-53.96,99.62,18.16,135.94,53.96c36.84,35.8,55,80.94,55,134.39s-18.16,98.59-55,134.39c-36.32,35.8-81.46,53.96-135.94,53.96s-99.62-18.16-135.95-53.96-54.48-80.95-54.48-134.39ZM1366.19,702.51c20.24-21.27,30.09-47.22,30.09-78.35s-9.86-57.08-30.09-77.83c-20.24-21.27-45.14-31.65-75.24-31.65s-54.48,10.38-74.72,31.65c-20.24,20.76-30.09,46.7-30.09,77.83s9.86,57.08,30.09,78.35c20.24,20.76,45.14,31.13,74.72,31.13s55-10.38,75.24-31.13Z"/>
      </g>
    </g>
  </g>
</svg>