<?xml version="1.0" encoding="UTF-8"?>
<svg id="Layer_2" data-name="Layer 2" xmlns="http://www.w3.org/2000/svg" viewBox="0 0 2507.38 420.74">
  <defs>
    <style>
      .cls-1 {
        fill: #fff;
      }
    </style>
  </defs>
  <g id="Layer_1-2" data-name="Layer 1">
    <g>
      <path class="cls-1" d="M1695.91,113.27c65.53-7.94,83.5,18.31,135.2,41.68,83.49,37.74,107.27-32.66,179.46-41.74,123.39-15.52,209.98,112.62,146.99,220.42-29.3,50.13-84.92,75.22-142.37,69.97-76.48-6.98-99.81-82.2-187.68-40.73-57.63,27.2-79.97,55.94-153.16,35.38-147.31-41.39-130.52-266.57,21.57-284.99ZM1701.05,178.73c-72.75,11.38-88.17,119.45-19.47,151.96,63.75,30.17,112.61-39.28,176.93-46.95,84.41-10.07,139.88,79.91,209.55,46.95,90.95-43.03,29.24-188.35-67.95-146.63-49.19,21.11-77.62,54.76-139.39,48.8-59.12-5.7-103.04-62.99-159.67-54.13Z"/>
      <g>
        <path class="cls-1" d="M63.67,284.04c9.13,46.21,48.5,78.74,98.13,78.74,33.66,0,59.91-12.55,78.73-37.09l58.19,17.69c-27.39,46.21-77.59,74.74-136.93,74.74-45.07,0-83.3-14.83-113.54-44.5S2.62,306.86,2.62,262.36s14.83-81.59,43.93-111.25c29.67-29.67,66.75-44.5,110.68-44.5s80.45,14.83,109.54,44.5c29.67,29.67,44.5,66.75,44.5,111.25,0,4.56-.57,11.98-1.14,21.68H63.67ZM250.24,236.69c-10.84-43.93-48.5-74.74-94.71-74.74-43.36,0-80.45,30.81-91.29,74.74h186Z"/>
        <path class="cls-1" d="M363.78,410.7V114.02h59.34v37.65c20.54-30.24,50.78-45.07,90.72-45.07s76.45,19.97,96.42,52.49c4.57-7.42,10.27-14.83,16.55-21.68,13.69-13.69,46.21-30.81,83.3-30.81,33.66,0,61.62,10.27,83.87,31.38,22.25,21.11,33.66,47.36,33.66,78.74v193.98h-59.34v-177.44c0-39.37-30.24-70.18-69.61-70.18-21.11,0-38.23,6.85-52.49,20.54-13.69,13.12-20.54,30.24-20.54,50.21v176.87h-59.34v-177.44c0-39.37-30.24-70.18-69.61-70.18-21.11,0-38.23,6.85-52.49,20.54-14.26,13.12-21.11,30.24-21.11,50.21v176.87h-59.34Z"/>
        <path class="cls-1" d="M885.27,262.36c0-44.5,14.83-81.59,44.5-111.25,29.67-29.67,66.75-44.5,111.25-44.5s81.59,14.83,111.25,44.5c30.24,29.67,45.07,66.75,45.07,111.25s-14.83,81.59-45.07,111.25c-29.67,29.67-66.75,44.5-111.25,44.5s-81.59-14.83-111.25-44.5c-29.67-29.67-44.5-66.75-44.5-111.25ZM1108.34,331.4c18.26-18.83,27.39-41.65,27.39-69.04s-9.13-50.21-27.39-68.47c-17.69-18.83-40.51-27.96-67.32-27.96s-49.07,9.13-67.32,27.96c-17.69,18.26-26.82,41.08-26.82,68.47s9.13,50.21,26.82,69.04c18.26,18.26,40.51,27.38,67.32,27.38s49.64-9.13,67.32-27.38Z"/>
        <path class="cls-1" d="M1225.32,114.02h45.07v-58.77h59.33v58.77h78.74v51.92h-78.74v146.06c0,23.39,17.12,41.65,39.94,41.65h38.8v57.06h-43.36c-26.82,0-49.07-8.56-67.33-25.67-18.26-17.69-27.38-39.37-27.38-65.04v-154.04h-45.07v-51.92Z"/>
        <path class="cls-1" d="M1462.1,14.18c15.4-15.41,40.51-15.41,55.91,0,15.4,15.41,15.4,40.51,0,55.91-15.41,15.41-40.51,15.41-55.91,0-14.26-15.41-14.26-40.51,0-55.91ZM1460.39,410.7V114.02h59.34v296.68h-59.34Z"/>
      </g>
      <g>
        <g>
          <path class="cls-1" d="M157.24,103.98c-44.64,0-82.5,15.23-112.56,45.29C15.03,179.5,0,217.55,0,262.36s15.62,82.9,46.43,113.13c30.6,30.03,69.42,45.25,115.37,45.25,58.94,0,110.98-28.42,139.19-76.03l1.7-2.87-63.13-19.19-1.11,1.44c-18.36,23.93-44.15,36.06-76.65,36.06-47,0-84.74-29.39-94.89-73.49h245.7s.45-7.47.59-9.72c.39-6.23.7-11.16.7-14.59,0-45.02-15.23-83.07-45.25-113.09-29.47-30.05-66.96-45.29-111.42-45.29ZM67.65,234.06c11.58-41.09,47.27-69.49,87.88-69.49,43.27,0,79.56,27.78,91.3,69.49H67.65Z"/>
          <path class="cls-1" d="M795.77,136.08c-22.45-21.3-51.28-32.1-85.68-32.1-36.81,0-69.94,16.37-85.23,31.66-5.46,5.96-10.46,12.32-14.61,18.58-21.24-31.99-56.14-50.24-96.42-50.24-37.78,0-67.38,13.34-88.09,39.66v-32.25h-64.58v301.93h64.58v-179.49c0-19.66,6.82-35.91,20.3-48.32,13.88-13.33,30.46-19.81,50.67-19.81,37.56,0,66.98,29.67,66.98,67.55v180.06h64.58v-179.49c0-19.51,6.64-35.77,19.73-48.32,13.88-13.33,30.46-19.81,50.67-19.81,37.56,0,66.98,29.67,66.98,67.55v180.06h64.58v-196.61c0-31.8-11.6-58.93-34.48-80.64Z"/>
          <path class="cls-1" d="M1041.02,103.98c-45.02,0-83.07,15.23-113.11,45.27-30.04,30.04-45.27,68.09-45.27,113.11s15.23,83.07,45.27,113.11c30.04,30.04,68.09,45.27,113.11,45.27s83.07-15.23,113.09-45.25c30.43-29.86,45.86-67.92,45.86-113.13s-15.43-83.27-45.84-113.11c-30.04-30.04-68.09-45.27-113.11-45.27ZM1106.46,329.57c-17.09,17.64-39.11,26.59-65.44,26.59s-47.56-8.71-65.41-26.56c-17.57-18.7-26.1-40.69-26.1-67.24s8.77-48.78,26.08-66.64c17.72-18.27,39.13-27.16,65.44-27.16s48.5,9.13,65.47,27.19c17.66,17.66,26.62,40.07,26.62,66.61s-8.72,48.72-26.65,67.21Z"/>
          <path class="cls-1" d="M1332.35,52.63h-64.58v58.77h-45.07v57.17h45.07v151.42c0,26.29,9.48,48.81,28.21,66.96,18.94,17.75,41.54,26.38,69.12,26.38h45.98v-62.3h-41.42c-21.27,0-37.32-16.78-37.32-39.02v-143.44h78.74v-57.17h-78.74v-58.77Z"/>
          <path class="cls-1" d="M1490.06,0c-11.28,0-21.86,4.37-29.88,12.39-15.18,16.4-15.18,43.08.07,59.55,7.94,7.95,18.53,12.32,29.81,12.32s21.87-4.37,29.81-12.32c16.44-16.44,16.44-43.18,0-59.62-7.94-7.95-18.53-12.32-29.81-12.32Z"/>
          <rect class="cls-1" x="1457.76" y="111.4" width="64.58" height="301.93"/>
          <path class="cls-1" d="M2472.95,132.39c-22.47-22.47-51.5-33.86-86.3-33.86-40.91,0-72.81,15.13-94.94,44.99v-37.57h-64.58v301.93h64.58v-172.64c0-21.7,7.2-39.19,22.02-53.45,14.83-14.28,33.41-21.52,55.24-21.52,42.09,0,73.83,31.98,73.83,74.4v173.21h64.58v-190.33c0-34.13-11.26-61.98-34.43-85.15Z"/>
        </g>
        <path class="cls-1" d="M2229.76,108.57h59.33v43.36c21.68-33.66,54.2-50.78,97.56-50.78,33.66,0,62.19,10.84,84.44,33.09,22.25,22.25,33.66,49.64,33.66,83.3v187.71h-59.34v-170.59c0-43.93-32.52-77.02-76.45-77.02-22.25,0-41.65,7.42-57.06,22.25-15.41,14.83-22.82,33.09-22.82,55.34v170.02h-59.33V108.57Z"/>
      </g>
    </g>
  </g>
</svg>
