<?xml version="1.0" encoding="UTF-8"?>
<svg id="Layer_2" data-name="Layer 2" xmlns="http://www.w3.org/2000/svg" viewBox="0 0 1742.58 307.27">
  <defs>
    <style>
      .cls-1 {
        fill: #7d7dfb;
      }

      .cls-2 {
        fill: #fff;
      }
    </style>
  </defs>
  <g id="Layer_1-2" data-name="Layer 1">
    <g>
      <path class="cls-1" d="M147.6.6c67.03-6.91,124.93,46.33,121.61,113.93-.41,8.38-4.64,18.39-1.86,26.47,3.48,10.1,20.52,10.94,28.74,18.85,20.68,19.9,13.41,57.69-13.73,67.63-9.48,3.47-19.08.91-26.98,6.8-11.17,8.34-6.74,21.87-9.9,34.63-8.48,34.15-49.59,49.14-79.03,29.79-7.87-5.17-15.8-19.21-23.99-20.53-12.38-2.01-15.39,4.5-25.27,8.33-28.62,11.11-62.98-3.25-70.44-33.94-2.7-11.09.27-18.66-6.57-28.75-7.64-11.27-20.63-11.2-29.75-20.92-17.36-18.51-12.28-50.09,9.54-62.75,6.08-3.53,13.53-4.29,18.83-8.81,10.66-9.08,13.58-44.13,18.91-59.4C71.02,33.83,107.14,4.78,147.6.6ZM168.89,59.04c-16.05-14.41-34.7,3.69-40.97,18.62-8.06,19.2-7.73,63.48,22.2,59.07,26.65-3.93,38.53-59.94,18.77-77.69ZM212,54.24c-33.46,6.79-23.41,91.4,16.21,82.25,29.83-6.89,21.35-89.86-16.21-82.25Z"/>
      <g>
        <path class="cls-2" d="M540.56,43.09v45.62h-113.73v39.99h95.61v45.62h-95.61v41.87h115.3v45.62h-164.98V43.09h163.41Z"/>
        <path class="cls-2" d="M563.68,261.81V99.33h46.87v14.69c10.94-12.5,25-18.75,42.18-18.75,21.25,0,37.81,8.44,49.37,25,10.62-16.56,26.87-25,48.74-25,17.81,0,32.5,5.94,44.68,17.5,12.19,11.56,18.12,25.62,18.12,42.81v106.23h-46.87v-93.74c0-16.56-11.87-29.37-27.18-29.37s-27.5,12.81-27.5,29.37v93.74h-46.87v-93.74c0-16.56-11.87-29.37-27.18-29.37s-27.5,12.81-27.5,29.37v93.74h-46.87Z"/>
        <path class="cls-2" d="M834.89,180.57c0-24.06,8.12-44.37,24.68-60.62,16.56-16.56,37.49-24.68,62.18-24.68s45.31,8.12,61.87,24.68c16.56,16.25,25,36.56,25,60.62s-8.44,44.37-25,60.93c-16.56,16.25-37.18,24.37-61.87,24.37s-45.62-8.12-62.18-24.37c-16.56-16.56-24.68-36.87-24.68-60.93ZM948.62,208.38c7.5-7.81,11.25-16.87,11.25-27.81s-3.75-20-11.25-27.5c-7.19-7.81-16.25-11.56-26.87-11.56s-20,3.75-27.18,11.25c-7.19,7.5-10.94,16.87-10.94,27.81s3.75,20.31,10.94,27.81c7.19,7.5,16.25,11.25,27.18,11.25s19.69-3.75,26.87-11.25Z"/>
        <path class="cls-2" d="M1018.93,99.33h22.18v-31.56h46.87v31.56h36.87v40.62h-36.87v60.93c0,10,7.5,17.19,17.81,17.19h19.06v43.74h-26.87c-15.94,0-29.68-5-40.62-14.69-10.94-10-16.25-22.5-16.25-37.18v-69.99h-22.18v-40.62Z"/>
        <path class="cls-2" d="M1138.91,59.02c0-8.44,2.81-15.31,8.12-20.62,5.62-5.31,12.5-8.12,20.93-8.12s15.31,2.81,20.62,8.12c5.62,5.31,8.44,12.19,8.44,20.62s-2.81,15.31-8.44,20.62c-5.31,5.31-12.19,8.12-20.62,8.12s-15.31-2.81-20.93-8.12c-5.31-5.31-8.12-12.19-8.12-20.62ZM1144.54,261.81V99.33h46.87v162.48h-46.87Z"/>
        <path class="cls-2" d="M1334.51,164.95c-5.94-14.06-19.06-23.43-35-23.43-10.94,0-20,3.75-27.18,11.25-7.19,7.19-10.94,16.56-10.94,27.5,0,22.5,16.56,39.37,38.12,39.37,15.94,0,29.06-9.37,35-23.43l47.18,13.75c-12.5,33.75-43.74,55.93-82.18,55.93-24.68,0-45.62-8.12-62.18-24.37-16.56-16.56-24.68-36.87-24.68-60.93s8.12-44.68,24.68-60.93c16.56-16.25,37.49-24.37,62.18-24.37,38.43,0,69.68,22.18,82.18,55.93l-47.18,13.75Z"/>
        <path class="cls-2" d="M1394.5,180.57c0-24.06,8.12-44.37,24.68-60.62,16.56-16.56,37.49-24.68,62.18-24.68s45.31,8.12,61.87,24.68c16.56,16.25,25,36.56,25,60.62s-8.44,44.37-25,60.93c-16.56,16.25-37.18,24.37-61.87,24.37s-45.62-8.12-62.18-24.37c-16.56-16.56-24.68-36.87-24.68-60.93ZM1508.23,208.38c7.5-7.81,11.25-16.87,11.25-27.81s-3.75-20-11.25-27.5c-7.19-7.81-16.25-11.56-26.87-11.56s-20,3.75-27.18,11.25-10.94,16.87-10.94,27.81,3.75,20.31,10.94,27.81,16.25,11.25,27.18,11.25,19.68-3.75,26.87-11.25Z"/>
        <path class="cls-2" d="M1589.16,99.33h46.87v16.56c10.94-13.75,25.62-20.62,44.37-20.62,17.5,0,32.18,5.94,44.06,17.81,12.19,11.87,18.12,26.56,18.12,44.37v104.36h-46.87v-91.86c0-17.81-12.5-31.25-29.68-31.25s-30,13.44-30,31.25v91.86h-46.87V99.33Z"/>
      </g>
    </g>
  </g>
</svg>